<?xml version="1.0" encoding="UTF-8"?>
<!DOCTYPE svg PUBLIC "-//W3C//DTD SVG 1.1//EN" "http://www.w3.org/Graphics/SVG/1.1/DTD/svg11.dtd">
<svg width="160mm" height="90mm" viewBox="0 0 16000 9000" version="1.1" baseProfile="tiny" xmlns="http://www.w3.org/2000/svg" stroke-width="28.222" stroke-linejoin="round" xml:space="preserve">
 <path fill="rgb(255,255,255)" stroke="none" d="M 8000,8999 L 0,8999 0,0 15999,0 15999,8999 8000,8999 Z"/>
 <path fill="rgb(0,69,134)" stroke="none" d="M 8305,474 C 7879,474 7455,541 7048,673 6642,805 6259,1000 5914,1251 5569,1502 5265,1806 5014,2151 4763,2496 4568,2879 4436,3285 4304,3692 4237,4116 4237,4542 4237,4969 4304,5393 4436,5800 4568,6206 4763,6589 5014,6934 L 6660,5738 C 6534,5565 6437,5374 6371,5171 6305,4968 6271,4756 6271,4542 6271,4329 6305,4117 6371,3914 6437,3711 6534,3520 6660,3347 6785,3174 6937,3022 7110,2897 7283,2771 7474,2674 7677,2608 7880,2542 8091,2508 8305,2508 L 8305,474 Z"/>
 <path fill="rgb(255,66,14)" stroke="none" d="M 5014,6934 C 5265,7279 5569,7583 5914,7834 6259,8085 6642,8280 7048,8412 7455,8544 7879,8612 8305,8612 8732,8612 9156,8544 9563,8412 9969,8280 10352,8085 10697,7834 L 9501,6188 C 9328,6314 9137,6411 8934,6477 8731,6543 8519,6577 8305,6577 8091,6577 7880,6543 7677,6477 7474,6411 7283,6314 7110,6188 6937,6063 6785,5911 6660,5738 L 5014,6934 Z"/>
 <path fill="rgb(255,211,32)" stroke="none" d="M 10697,7834 C 11042,7583 11346,7279 11597,6934 11848,6589 12043,6206 12175,5800 12307,5393 12375,4969 12375,4542 12375,4116 12307,3692 12175,3285 12043,2879 11848,2496 11597,2151 11346,1806 11042,1502 10697,1251 L 10697,1251 9501,2897 9501,2897 C 9674,3022 9826,3174 9951,3347 10077,3520 10174,3711 10240,3914 10306,4117 10340,4329 10340,4542 10340,4756 10306,4968 10240,5171 10174,5374 10077,5565 9951,5738 9826,5911 9674,6063 9501,6188 L 10697,7834 Z"/>
 <path fill="rgb(87,157,28)" stroke="none" d="M 10697,1251 C 10352,1000 9969,805 9563,673 9156,541 8732,474 8305,474 L 8305,2508 C 8519,2508 8731,2542 8934,2608 9137,2674 9328,2771 9501,2897 L 10697,1251 Z"/>
 <text class="TextShape"><tspan class="TextParagraph" font-family="Liberation Sans, sans-serif" font-size="423px" font-weight="700"><tspan class="TextPosition" x="5805" y="7704"><tspan fill="rgb(255,255,255)" stroke="none">Ruby / RoR / Sinatra</tspan></tspan></tspan></text>
 <text class="TextShape"><tspan class="TextParagraph" font-family="Liberation Sans, sans-serif" font-size="423px" font-weight="700"><tspan class="TextPosition" x="10313" y="4689"><tspan fill="rgb(255,255,255)" stroke="none">Javascript</tspan></tspan></tspan></text>
 <text class="TextShape"><tspan class="TextParagraph" font-family="Liberation Sans, sans-serif" font-size="388px" font-weight="700"><tspan class="TextPosition" x="8137" y="1772"><tspan fill="rgb(255,255,255)" stroke="none">HTML&amp;CSS</tspan></tspan></tspan></text>
</svg>